<svg xmlns="http://www.w3.org/2000/svg" viewBox="0 0 24 24" width="24" height="24" fill="none" stroke="#00C9B1" stroke-width="1.5" stroke-linecap="round" stroke-linejoin="round">
  
  <path d="M9 3C6.5 3 4 5 4 7.5c0 1 .4 2 1 2.7C4.4 11 4 12 4 13c0 2 1.5 3.5 3 4"/>
  <path d="M15 3c2.5 0 5 2 5 4.5 0 1-.4 2-1 2.7.6.8 1 1.8 1 2.8 0 2-1.5 3.5-3 4"/>
  <path d="M9 21c1-1 3-2 3-2s2 1 3 2"/>
  <path d="M9 7c0 0 1 1 3 1s3-1 3-1"/>
  <path d="M8 13c0 0 1.3 1 4 1s4-1 4-1"/>
  <line x1="12" y1="8" x2="12" y2="14"/>

</svg>